<?xml version="1.0" encoding="UTF-8" standalone="no"?>
<!DOCTYPE svg PUBLIC "-//W3C//DTD SVG 1.1//EN"
 "http://www.w3.org/Graphics/SVG/1.1/DTD/svg11.dtd">
<!-- Generated by graphviz version 2.48.0 (20210717.2242)
 -->
<!-- Title: pipeline_dag_20220113_175412 Pages: 1 -->
<svg width="356pt" height="696pt"
 viewBox="0.00 0.00 355.64 695.80" xmlns="http://www.w3.org/2000/svg" xmlns:xlink="http://www.w3.org/1999/xlink">
<g id="graph0" class="graph" transform="scale(1 1) rotate(0) translate(4 691.8)">
<title>pipeline_dag_20220113_175412</title>
<polygon fill="white" stroke="transparent" points="-4,4 -4,-691.8 351.64,-691.8 351.64,4 -4,4"/>
<!-- p0 -->
<g id="node1" class="node">
<title>p0</title>
<ellipse fill="black" stroke="black" cx="309.64" cy="-669.2" rx="3.6" ry="3.6"/>
<text text-anchor="middle" x="244.04" y="-676.6" font-family="Times,serif" font-size="14.00">Channel.fromFilePairs</text>
</g>
<!-- p1 -->
<g id="node2" class="node">
<title>p1</title>
<ellipse fill="none" stroke="black" cx="309.64" cy="-596.6" rx="37.09" ry="18"/>
<text text-anchor="middle" x="309.64" y="-592.9" font-family="Times,serif" font-size="14.00">FASTP</text>
</g>
<!-- p0&#45;&gt;p1 -->
<g id="edge1" class="edge">
<title>p0&#45;&gt;p1</title>
<path fill="none" stroke="black" d="M309.64,-665.52C309.64,-658.85 309.64,-640.9 309.64,-625.13"/>
<polygon fill="black" stroke="black" points="313.14,-624.73 309.64,-614.73 306.14,-624.73 313.14,-624.73"/>
<text text-anchor="middle" x="324.14" y="-636.4" font-family="Times,serif" font-size="14.00">reads</text>
</g>
<!-- p2 -->
<g id="node3" class="node">
<title>p2</title>
<ellipse fill="none" stroke="black" cx="267.64" cy="-523.6" rx="48.19" ry="18"/>
<text text-anchor="middle" x="267.64" y="-519.9" font-family="Times,serif" font-size="14.00">SHOVILL</text>
</g>
<!-- p1&#45;&gt;p2 -->
<g id="edge2" class="edge">
<title>p1&#45;&gt;p2</title>
<path fill="none" stroke="black" d="M299.9,-579.13C294.83,-570.56 288.52,-559.9 282.83,-550.27"/>
<polygon fill="black" stroke="black" points="285.72,-548.3 277.62,-541.47 279.7,-551.86 285.72,-548.3"/>
</g>
<!-- p12 -->
<g id="node4" class="node">
<title>p12</title>
<ellipse fill="none" stroke="black" cx="264.64" cy="-161.1" rx="3.5" ry="3.5"/>
<text text-anchor="middle" x="250.14" y="-168.4" font-family="Times,serif" font-size="14.00">mix</text>
</g>
<!-- p1&#45;&gt;p12 -->
<g id="edge3" class="edge">
<title>p1&#45;&gt;p12</title>
<path fill="none" stroke="black" d="M323.79,-579.95C334.59,-566.34 347.64,-545.57 347.64,-524.6 347.64,-524.6 347.64,-524.6 347.64,-218.6 347.64,-185.21 301.16,-170.15 277.77,-164.69"/>
<polygon fill="black" stroke="black" points="278.3,-161.22 267.79,-162.62 276.87,-168.08 278.3,-161.22"/>
</g>
<!-- p3 -->
<g id="node5" class="node">
<title>p3</title>
<ellipse fill="none" stroke="black" cx="175.64" cy="-450.6" rx="53.89" ry="18"/>
<text text-anchor="middle" x="175.64" y="-446.9" font-family="Times,serif" font-size="14.00">ABRICATE</text>
</g>
<!-- p2&#45;&gt;p3 -->
<g id="edge4" class="edge">
<title>p2&#45;&gt;p3</title>
<path fill="none" stroke="black" d="M247.68,-507.19C234.96,-497.38 218.27,-484.5 204.16,-473.61"/>
<polygon fill="black" stroke="black" points="206.26,-470.81 196.2,-467.47 201.98,-476.35 206.26,-470.81"/>
</g>
<!-- p4 -->
<g id="node7" class="node">
<title>p4</title>
<ellipse fill="none" stroke="black" cx="236.64" cy="-396.6" rx="46.59" ry="18"/>
<text text-anchor="middle" x="236.64" y="-392.9" font-family="Times,serif" font-size="14.00">PROKKA</text>
</g>
<!-- p2&#45;&gt;p4 -->
<g id="edge6" class="edge">
<title>p2&#45;&gt;p4</title>
<path fill="none" stroke="black" d="M263.4,-505.48C258.23,-484.65 249.45,-449.24 243.36,-424.69"/>
<polygon fill="black" stroke="black" points="246.74,-423.78 240.93,-414.91 239.94,-425.46 246.74,-423.78"/>
</g>
<!-- p5 -->
<g id="node8" class="node">
<title>p5</title>
<ellipse fill="none" stroke="black" cx="296.64" cy="-450.6" rx="3.5" ry="3.5"/>
<text text-anchor="middle" x="280.64" y="-457.9" font-family="Times,serif" font-size="14.00">map</text>
</g>
<!-- p2&#45;&gt;p5 -->
<g id="edge8" class="edge">
<title>p2&#45;&gt;p5</title>
<path fill="none" stroke="black" d="M274.51,-505.77C279.78,-492.87 286.93,-475.36 291.66,-463.79"/>
<polygon fill="black" stroke="black" points="294.99,-464.89 295.53,-454.31 288.51,-462.24 294.99,-464.89"/>
</g>
<!-- p13 -->
<g id="node14" class="node">
<title>p13</title>
<ellipse fill="none" stroke="black" cx="264.64" cy="-117.1" rx="3.5" ry="3.5"/>
<text text-anchor="middle" x="242.64" y="-124.4" font-family="Times,serif" font-size="14.00">collect</text>
</g>
<!-- p12&#45;&gt;p13 -->
<g id="edge16" class="edge">
<title>p12&#45;&gt;p13</title>
<path fill="none" stroke="black" d="M264.64,-157.34C264.64,-152.07 264.64,-140.23 264.64,-130.92"/>
<polygon fill="black" stroke="black" points="268.14,-130.92 264.64,-120.92 261.14,-130.92 268.14,-130.92"/>
</g>
<!-- p8 -->
<g id="node6" class="node">
<title>p8</title>
<ellipse fill="none" stroke="black" cx="168.64" cy="-357.1" rx="3.5" ry="3.5"/>
<text text-anchor="middle" x="152.64" y="-364.4" font-family="Times,serif" font-size="14.00">map</text>
</g>
<!-- p3&#45;&gt;p8 -->
<g id="edge5" class="edge">
<title>p3&#45;&gt;p8</title>
<path fill="none" stroke="black" d="M174.32,-432.39C172.96,-414.59 170.87,-387.21 169.64,-371.13"/>
<polygon fill="black" stroke="black" points="173.1,-370.45 168.84,-360.74 166.12,-370.98 173.1,-370.45"/>
</g>
<!-- p9 -->
<g id="node11" class="node">
<title>p9</title>
<ellipse fill="none" stroke="black" cx="141.64" cy="-313.1" rx="3.5" ry="3.5"/>
<text text-anchor="middle" x="119.64" y="-320.4" font-family="Times,serif" font-size="14.00">collect</text>
</g>
<!-- p8&#45;&gt;p9 -->
<g id="edge12" class="edge">
<title>p8&#45;&gt;p9</title>
<path fill="none" stroke="black" d="M167.19,-353.84C163.78,-348.54 155.07,-334.99 148.76,-325.18"/>
<polygon fill="black" stroke="black" points="151.59,-323.1 143.23,-316.58 145.7,-326.88 151.59,-323.1"/>
</g>
<!-- p4&#45;&gt;p12 -->
<g id="edge7" class="edge">
<title>p4&#45;&gt;p12</title>
<path fill="none" stroke="black" d="M237.08,-378.53C237.35,-366.53 237.64,-350.08 237.64,-335.6 237.64,-335.6 237.64,-335.6 237.64,-218.6 237.64,-201.13 248.27,-183.34 256.19,-172.51"/>
<polygon fill="black" stroke="black" points="259.07,-174.51 262.52,-164.49 253.58,-170.17 259.07,-174.51"/>
</g>
<!-- p6 -->
<g id="node9" class="node">
<title>p6</title>
<ellipse fill="none" stroke="black" cx="296.64" cy="-357.1" rx="3.5" ry="3.5"/>
<text text-anchor="middle" x="274.64" y="-364.4" font-family="Times,serif" font-size="14.00">collect</text>
</g>
<!-- p5&#45;&gt;p6 -->
<g id="edge9" class="edge">
<title>p5&#45;&gt;p6</title>
<path fill="none" stroke="black" d="M296.64,-446.96C296.64,-435.94 296.64,-393.17 296.64,-371.23"/>
<polygon fill="black" stroke="black" points="300.14,-370.93 296.64,-360.93 293.14,-370.93 300.14,-370.93"/>
</g>
<!-- p7 -->
<g id="node10" class="node">
<title>p7</title>
<ellipse fill="none" stroke="black" cx="292.64" cy="-273.6" rx="40.09" ry="18"/>
<text text-anchor="middle" x="292.64" y="-269.9" font-family="Times,serif" font-size="14.00">QUAST</text>
</g>
<!-- p6&#45;&gt;p7 -->
<g id="edge10" class="edge">
<title>p6&#45;&gt;p7</title>
<path fill="none" stroke="black" d="M296.51,-353.39C296.12,-345.42 294.94,-321.41 293.98,-301.96"/>
<polygon fill="black" stroke="black" points="297.47,-301.58 293.48,-291.77 290.48,-301.93 297.47,-301.58"/>
</g>
<!-- p7&#45;&gt;p12 -->
<g id="edge11" class="edge">
<title>p7&#45;&gt;p12</title>
<path fill="none" stroke="black" d="M288.27,-255.33C282.59,-232.92 272.81,-194.34 267.8,-174.57"/>
<polygon fill="black" stroke="black" points="271.18,-173.67 265.33,-164.83 264.4,-175.38 271.18,-173.67"/>
</g>
<!-- p10 -->
<g id="node12" class="node">
<title>p10</title>
<ellipse fill="none" stroke="black" cx="104.64" cy="-219.6" rx="104.78" ry="18"/>
<text text-anchor="middle" x="104.64" y="-215.9" font-family="Times,serif" font-size="14.00">ABRICATE_SUMMARY</text>
</g>
<!-- p9&#45;&gt;p10 -->
<g id="edge13" class="edge">
<title>p9&#45;&gt;p10</title>
<path fill="none" stroke="black" d="M140.57,-309.46C136.92,-300.42 124.63,-270.04 115.44,-247.3"/>
<polygon fill="black" stroke="black" points="118.59,-245.76 111.6,-237.8 112.1,-248.38 118.59,-245.76"/>
</g>
<!-- p10&#45;&gt;p12 -->
<g id="edge15" class="edge">
<title>p10&#45;&gt;p12</title>
<path fill="none" stroke="black" d="M148.36,-203.16C183.34,-190.81 230.05,-174.32 252.1,-166.53"/>
<polygon fill="black" stroke="black" points="253.32,-169.81 261.59,-163.18 250.99,-163.21 253.32,-169.81"/>
</g>
<!-- p11 -->
<g id="node13" class="node">
<title>p11</title>
<ellipse fill="black" stroke="black" cx="104.64" cy="-161.1" rx="1.8" ry="1.8"/>
</g>
<!-- p10&#45;&gt;p11 -->
<g id="edge14" class="edge">
<title>p10&#45;&gt;p11</title>
<path fill="none" stroke="black" d="M104.64,-201.34C104.64,-192.25 104.64,-181.37 104.64,-173.37"/>
<polygon fill="black" stroke="black" points="108.14,-173.1 104.64,-163.1 101.14,-173.1 108.14,-173.1"/>
</g>
<!-- p14 -->
<g id="node15" class="node">
<title>p14</title>
<ellipse fill="none" stroke="black" cx="264.64" cy="-58.6" rx="51.19" ry="18"/>
<text text-anchor="middle" x="264.64" y="-54.9" font-family="Times,serif" font-size="14.00">MULTIQC</text>
</g>
<!-- p13&#45;&gt;p14 -->
<g id="edge17" class="edge">
<title>p13&#45;&gt;p14</title>
<path fill="none" stroke="black" d="M264.64,-113.37C264.64,-108.43 264.64,-97.5 264.64,-86.77"/>
<polygon fill="black" stroke="black" points="268.14,-86.75 264.64,-76.75 261.14,-86.75 268.14,-86.75"/>
</g>
<!-- p15 -->
<g id="node16" class="node">
<title>p15</title>
<ellipse fill="black" stroke="black" cx="264.64" cy="-1.8" rx="1.8" ry="1.8"/>
</g>
<!-- p14&#45;&gt;p15 -->
<g id="edge18" class="edge">
<title>p14&#45;&gt;p15</title>
<path fill="none" stroke="black" d="M264.64,-40.56C264.64,-31.87 264.64,-21.56 264.64,-13.9"/>
<polygon fill="black" stroke="black" points="268.14,-13.76 264.64,-3.76 261.14,-13.76 268.14,-13.76"/>
</g>
</g>
</svg>
