<?xml version="1.0" standalone="no"?><!DOCTYPE svg PUBLIC "-//W3C//DTD SVG 1.1//EN" 	"http://www.w3.org/Graphics/SVG/1.1/DTD/svg11.dtd"><svg width="1213" height="890" version="1.1"	xmlns="http://www.w3.org/2000/svg"><title>Krona (snapshot) - Root</title><defs>	<style type="text/css">	text {font-size: 11px; font-family: sans-serif; dominant-baseline:central}	path {stroke-width:0.27499999999999997;}	path.wedge {stroke:none}	path.line {fill:none;stroke:black;}	line {stroke:black;stroke-width:0.27499999999999997;}	line.tick {stroke-width:0.5499999999999999;}	line.pattern {stroke-width:0.18333333333333332;}	circle {fill:none;stroke:black;stroke-width:0.27499999999999997;}	rect {stroke:black;stroke-width:0.27499999999999997;}	.highlight {stroke:black;stroke-width:1.375;}	.searchHighlight {fill:rgb(255, 255, 100);stroke:none;}	</style><pattern id="hiddenPattern" patternUnits="userSpaceOnUse" x="0" y="0" width="6.6" height="6.6"><line class="pattern" x1="0" y1="0" x2="3.3" y2="3.3"/><line class="pattern" x1="3.3" y1="6.6" x2="6.6" y2="3.3"/></pattern></defs><path class="wedge" fill="rgb(220,220,220)" d=" M 531.5000000000001,533 L 531.5000000000005,801 A 356,356 0 0,1 531.5000000000001,801 L 531.5,533 A 88,88 0 0 0 531.5000000000001,533 Z "/><path class="wedge" fill="rgb(209,117,117)" d=" M 531.5,533 L 531.5,801 A 356,356 0 1,1 773.6414946464471,184.0335336285816 L 591.3552009238408,380.49143527897525 A 88,88 0 1 0 531.5,533 Z "/><path class="wedge" fill="rgb(209,117,117)" d=" M 430.20183473065526,565.7224523829436 L 302.667610951592,717.7118217503562 A 356,356 0 1,1 773.6414946464471,184.0335336285816 L 638.6897612276954,329.47691189966736 A 157.5919693267635,157.5919693267635 0 1 0 430.20183473065526,565.7224523829436 Z "/><path class="wedge" fill="rgb(214,132,132)" d=" M 531.5,602.5919693267635 L 531.5,801 A 356,356 0 0,1 302.667610951592,717.7118217503562 L 430.20183473065526,565.7224523829436 A 157.5919693267635,157.5919693267635 0 0 0 531.5,602.5919693267635 Z "/><path class="wedge" fill="rgb(214,132,132)" d=" M 531.5,602.5919693267635 L 531.5,801 A 356,356 0 0,1 302.667610951592,717.7118217503562 L 430.20183473065526,565.7224523829436 A 157.5919693267635,157.5919693267635 0 0 0 531.5,602.5919693267635 Z "/><path class="wedge" fill="rgb(219,147,147)" d=" M 531.5,659.6455980443798 L 531.5,801 A 356,356 0 0,1 330.9580593293507,739.1410036564943 L 410.58582924653916,622.3485158405122 A 214.64559804437982,214.64559804437982 0 0 0 531.5,659.6455980443798 Z "/><path class="wedge" fill="rgb(219,147,147)" d=" M 531.5,659.6455980443798 L 531.5,801 A 356,356 0 0,1 330.9580593293507,739.1410036564943 L 410.58582924653916,622.3485158405122 A 214.64559804437982,214.64559804437982 0 0 0 531.5,659.6455980443798 Z "/><path class="wedge" fill="rgb(219,147,147)" d=" M 479.53376145249115,702.0621688557678 L 460.95997302101455,793.9414056740816 A 356,356 0 0,1 330.9580593293507,739.1410036564943 L 383.7624561686663,661.6911782890403 A 262.26217532386914,262.26217532386914 0 0 0 479.53376145249115,702.0621688557678 Z "/><path class="wedge" fill="rgb(224,163,163)" d=" M 531.5,707.2621753238691 L 531.5,801 A 356,356 0 0,1 460.95997302101455,793.9414056740816 L 479.53376145249115,702.0621688557678 A 262.26217532386914,262.26217532386914 0 0 0 531.5,707.2621753238691 Z "/><path class="wedge" fill="rgb(224,163,163)" d=" M 531.5,707.2621753238691 L 531.5,801 A 356,356 0 0,1 460.95997302101455,793.9414056740816 L 479.53376145249115,702.0621688557678 A 262.26217532386914,262.26217532386914 0 0 0 531.5,707.2621753238691 Z "/><path class="wedge" fill="rgb(219,153,147)" d=" M 410.58582924653916,622.3485158405122 L 330.9580593293507,739.1410036564943 A 356,356 0 0,1 302.667610951592,717.7118217503562 L 393.5284691033154,609.4280676218469 A 214.64559804437982,214.64559804437982 0 0 0 410.58582924653916,622.3485158405122 Z "/><path class="wedge" fill="rgb(219,153,147)" d=" M 410.58582924653916,622.3485158405122 L 330.9580593293507,739.1410036564943 A 356,356 0 0,1 302.667610951592,717.7118217503562 L 393.5284691033154,609.4280676218469 A 214.64559804437982,214.64559804437982 0 0 0 410.58582924653916,622.3485158405122 Z "/><path class="wedge" fill="rgb(219,153,147)" d=" M 410.58582924653916,622.3485158405122 L 330.9580593293507,739.1410036564943 A 356,356 0 0,1 302.667610951592,717.7118217503562 L 393.5284691033154,609.4280676218469 A 214.64559804437982,214.64559804437982 0 0 0 410.58582924653916,622.3485158405122 Z "/><path class="wedge" fill="rgb(219,153,147)" d=" M 410.58582924653916,622.3485158405122 L 330.9580593293507,739.1410036564943 A 356,356 0 0,1 302.667610951592,717.7118217503562 L 393.5284691033154,609.4280676218469 A 214.64559804437982,214.64559804437982 0 0 0 410.58582924653916,622.3485158405122 Z "/><path class="wedge" fill="rgb(219,153,147)" d=" M 410.58582924653916,622.3485158405122 L 330.9580593293507,739.1410036564943 A 356,356 0 0,1 302.667610951592,717.7118217503562 L 393.5284691033154,609.4280676218469 A 214.64559804437982,214.64559804437982 0 0 0 410.58582924653916,622.3485158405122 Z "/><path class="wedge" fill="rgb(117,209,117)" d=" M 591.3552009238408,380.49143527897525 L 773.6414946464471,184.0335336285816 A 356,356 0 0,1 786.3485983364599,693.5723072386418 L 594.4962827348553,506.4448399915744 A 88,88 0 0 0 591.3552009238408,380.49143527897525 Z "/><path class="wedge" fill="rgb(117,117,209)" d=" M 594.4962827348553,506.4448399915744 L 786.3485983364599,693.5723072386418 A 356,356 0 0,1 531.5000000000005,801 L 531.5000000000001,533 A 88,88 0 0 0 594.4962827348553,506.4448399915744 Z "/><path class="wedge" fill="rgb(117,117,209)" d=" M 594.4962827348553,506.4448399915744 L 786.3485983364599,693.5723072386418 A 356,356 0 0,1 531.5000000000005,801 L 531.5000000000001,533 A 88,88 0 0 0 594.4962827348553,506.4448399915744 Z "/><path class="wedge" fill="rgb(117,117,209)" d=" M 594.4962827348553,506.4448399915744 L 786.3485983364599,693.5723072386418 A 356,356 0 0,1 531.5000000000005,801 L 531.5000000000001,533 A 88,88 0 0 0 594.4962827348553,506.4448399915744 Z "/><path class="wedge" fill="rgb(117,117,209)" d=" M 594.4962827348553,506.4448399915744 L 786.3485983364599,693.5723072386418 A 356,356 0 0,1 531.5000000000005,801 L 531.5000000000001,533 A 88,88 0 0 0 594.4962827348553,506.4448399915744 Z "/><path class="wedge" fill="rgb(117,117,209)" d=" M 594.4962827348553,506.4448399915744 L 786.3485983364599,693.5723072386418 A 356,356 0 0,1 531.5000000000005,801 L 531.5000000000001,533 A 88,88 0 0 0 594.4962827348553,506.4448399915744 Z "/><path class="wedge" fill="rgb(117,117,209)" d=" M 594.4962827348553,506.4448399915744 L 786.3485983364599,693.5723072386418 A 356,356 0 0,1 531.5000000000005,801 L 531.5000000000001,533 A 88,88 0 0 0 594.4962827348553,506.4448399915744 Z "/><path class="wedge" fill="rgb(117,117,209)" d=" M 594.4962827348553,506.4448399915744 L 786.3485983364599,693.5723072386418 A 356,356 0 0,1 531.5000000000005,801 L 531.5000000000001,533 A 88,88 0 0 0 594.4962827348553,506.4448399915744 Z "/><path class="wedge" fill="rgb(117,117,209)" d=" M 594.4962827348553,506.4448399915744 L 786.3485983364599,693.5723072386418 A 356,356 0 0,1 531.5000000000005,801 L 531.5000000000001,533 A 88,88 0 0 0 594.4962827348553,506.4448399915744 Z "/><path class="wedge" fill="rgb(117,117,209)" d=" M 594.4962827348553,506.4448399915744 L 786.3485983364599,693.5723072386418 A 356,356 0 0,1 531.5000000000005,801 L 531.5000000000001,533 A 88,88 0 0 0 594.4962827348553,506.4448399915744 Z "/><path class="wedge" fill="rgb(117,117,209)" d=" M 594.4962827348553,506.4448399915744 L 786.3485983364599,693.5723072386418 A 356,356 0 0,1 531.5000000000005,801 L 531.5000000000001,533 A 88,88 0 0 0 594.4962827348553,506.4448399915744 Z "/><path class="wedge" fill="rgb(117,117,209)" d=" M 594.4962827348553,506.4448399915744 L 786.3485983364599,693.5723072386418 A 356,356 0 0,1 531.5000000000005,801 L 531.5000000000001,533 A 88,88 0 0 0 594.4962827348553,506.4448399915744 Z "/><path class="wedge" fill="rgb(117,117,209)" d=" M 594.4962827348553,506.4448399915744 L 786.3485983364599,693.5723072386418 A 356,356 0 0,1 531.5000000000005,801 L 531.5000000000001,533 A 88,88 0 0 0 594.4962827348553,506.4448399915744 Z "/><path class="wedge" fill="rgb(117,117,209)" d=" M 594.4962827348553,506.4448399915744 L 786.3485983364599,693.5723072386418 A 356,356 0 0,1 531.5000000000005,801 L 531.5000000000001,533 A 88,88 0 0 0 594.4962827348553,506.4448399915744 Z "/><path class="wedge" fill="rgb(117,117,209)" d=" M 594.4962827348553,506.4448399915744 L 786.3485983364599,693.5723072386418 A 356,356 0 0,1 531.5000000000005,801 L 531.5000000000001,533 A 88,88 0 0 0 594.4962827348553,506.4448399915744 Z "/><path class="wedge" fill="rgb(117,117,209)" d=" M 594.4962827348553,506.4448399915744 L 786.3485983364599,693.5723072386418 A 356,356 0 0,1 531.5000000000005,801 L 531.5000000000001,533 A 88,88 0 0 0 594.4962827348553,506.4448399915744 Z "/><path class="wedge" fill="rgb(117,117,209)" d=" M 594.4962827348553,506.4448399915744 L 786.3485983364599,693.5723072386418 A 356,356 0 0,1 531.5000000000005,801 L 531.5000000000001,533 A 88,88 0 0 0 594.4962827348553,506.4448399915744 Z "/><path class="wedge" fill="rgb(117,117,209)" d=" M 594.4962827348553,506.4448399915744 L 786.3485983364599,693.5723072386418 A 356,356 0 0,1 531.5000000000005,801 L 531.5000000000001,533 A 88,88 0 0 0 594.4962827348553,506.4448399915744 Z "/><path class="wedge" fill="rgb(117,117,209)" d=" M 594.4962827348553,506.4448399915744 L 786.3485983364599,693.5723072386418 A 356,356 0 0,1 531.5000000000005,801 L 531.5000000000001,533 A 88,88 0 0 0 594.4962827348553,506.4448399915744 Z "/><path class="wedge" fill="rgb(117,117,209)" d=" M 594.4962827348553,506.4448399915744 L 786.3485983364599,693.5723072386418 A 356,356 0 0,1 531.5000000000005,801 L 531.5000000000001,533 A 88,88 0 0 0 594.4962827348553,506.4448399915744 Z "/><path class="wedge" fill="rgb(117,117,209)" d=" M 594.4962827348553,506.4448399915744 L 786.3485983364599,693.5723072386418 A 356,356 0 0,1 531.5000000000005,801 L 531.5000000000001,533 A 88,88 0 0 0 594.4962827348553,506.4448399915744 Z "/><path class="wedge" fill="rgb(117,117,209)" d=" M 594.4962827348553,506.4448399915744 L 786.3485983364599,693.5723072386418 A 356,356 0 0,1 531.5000000000005,801 L 531.5000000000001,533 A 88,88 0 0 0 594.4962827348553,506.4448399915744 Z "/><path class="wedge" fill="rgb(117,117,209)" d=" M 594.4962827348553,506.4448399915744 L 786.3485983364599,693.5723072386418 A 356,356 0 0,1 531.5000000000005,801 L 531.5000000000001,533 A 88,88 0 0 0 594.4962827348553,506.4448399915744 Z "/><path class="wedge" fill="rgb(117,117,209)" d=" M 594.4962827348553,506.4448399915744 L 786.3485983364599,693.5723072386418 A 356,356 0 0,1 531.5000000000005,801 L 531.5000000000001,533 A 88,88 0 0 0 594.4962827348553,506.4448399915744 Z "/><path class="wedge" fill="rgb(117,117,209)" d=" M 594.4962827348553,506.4448399915744 L 786.3485983364599,693.5723072386418 A 356,356 0 0,1 531.5000000000005,801 L 531.5000000000001,533 A 88,88 0 0 0 594.4962827348553,506.4448399915744 Z "/><path class="wedge" fill="rgb(117,117,209)" d=" M 594.4962827348553,506.4448399915744 L 786.3485983364599,693.5723072386418 A 356,356 0 0,1 531.5000000000005,801 L 531.5000000000001,533 A 88,88 0 0 0 594.4962827348553,506.4448399915744 Z "/><path class="wedge" fill="rgb(117,117,209)" d=" M 594.4962827348553,506.4448399915744 L 786.3485983364599,693.5723072386418 A 356,356 0 0,1 531.5000000000005,801 L 531.5000000000001,533 A 88,88 0 0 0 594.4962827348553,506.4448399915744 Z "/><path class="wedge" fill="rgb(117,117,209)" d=" M 594.4962827348553,506.4448399915744 L 786.3485983364599,693.5723072386418 A 356,356 0 0,1 531.5000000000005,801 L 531.5000000000001,533 A 88,88 0 0 0 594.4962827348553,506.4448399915744 Z "/><path class="wedge" fill="rgb(117,117,209)" d=" M 594.4962827348553,506.4448399915744 L 786.3485983364599,693.5723072386418 A 356,356 0 0,1 531.5000000000005,801 L 531.5000000000001,533 A 88,88 0 0 0 594.4962827348553,506.4448399915744 Z "/><path class="wedge" fill="rgb(117,117,209)" d=" M 594.4962827348553,506.4448399915744 L 786.3485983364599,693.5723072386418 A 356,356 0 0,1 531.5000000000005,801 L 531.5000000000001,533 A 88,88 0 0 0 594.4962827348553,506.4448399915744 Z "/><path class="wedge" fill="rgb(117,117,209)" d=" M 594.4962827348553,506.4448399915744 L 786.3485983364599,693.5723072386418 A 356,356 0 0,1 531.5000000000005,801 L 531.5000000000001,533 A 88,88 0 0 0 594.4962827348553,506.4448399915744 Z "/><circle cx="531.5" cy="445" r="88"/><circle cx="531.5" cy="445" r="356"/><text x="531.5" y="445" text-anchor="middle" style="font-color:black;font-weight:bold" transform="rotate(360,531.5,445)">Root</text><path class="line" d=" M 591.3552009238408,380.49143527897525 A 88,88 0 1 0 531.5,533"/><line x1="773.6414946464471" y1="184.0335336285816" x2="591.3552009238408" y2="380.49143527897525"/><text x="309.5" y="445" text-anchor="end" style="font-color:black;font-weight:normal" transform="rotate(21.428571428571413,531.5,445)">Bacteria&#160;&#160;&#160;62%</text><line x1="302.667610951592" y1="717.7118217503562" x2="430.20183473065526" y2="565.7224523829436"/><path class="line" d=" M 430.20183473065526,565.7224523829436 A 157.5919693267635,157.5919693267635 0 0 0 531.5,602.5919693267635"/><text x="531.5" y="619.7080579420484" text-anchor="middle" style="font-color:black;font-weight:normal" transform="rotate(20.000000000000004,531.5,445)">Gammaproteobacteria</text><line x1="330.9580593293507" y1="739.1410036564943" x2="410.58582924653916" y2="622.3485158405122"/><path class="line" d=" M 410.58582924653916,622.3485158405122 A 214.64559804437982,214.64559804437982 0 0 0 531.5,659.6455980443798"/><text x="246.17720097781006" y="445" text-anchor="end" style="font-color:black;font-weight:normal" transform="rotate(-72.85714285714288,531.5,445)">Enterobacteriaceae&#160;&#160;&#160;10%</text><line x1="460.95997302101455" y1="793.9414056740816" x2="479.53376145249115" y2="702.0621688557678"/><path class="line" d=" M 479.53376145249115,702.0621688557678 A 262.26217532386914,262.26217532386914 0 0 0 531.5,707.2621753238691"/><text x="222.3689123380654" y="445" text-anchor="end" style="font-color:black;font-weight:normal" transform="rotate(-84.28571428571429,531.5,445)">Escherichia coli&#160;&#160;&#160;3%</text><path class="line" d=" M 393.5284691033154,609.4280676218469 A 214.64559804437982,214.64559804437982 0 0 0 410.58582924653916,622.3485158405122"/><text x="246.17720097781006" y="445" text-anchor="end" style="font-color:black;font-weight:normal" transform="rotate(-52.85714285714286,531.5,445)">Photobacterium profundum SS9&#160;&#160;&#160;2%</text><path class="line" d=" M 594.4962827348553,506.4448399915744 A 88,88 0 0 0 591.3552009238408,380.49143527897525"/><line x1="786.3485983364599" y1="693.5723072386418" x2="594.4962827348553" y2="506.4448399915744"/><text x="753.5" y="445" text-anchor="start" style="font-color:black;font-weight:normal" transform="rotate(358.5714285714285,531.5,445)">25%&#160;&#160;&#160;No hits</text><line x1="531.5000000000005" y1="801" x2="531.5000000000001" y2="533"/><path class="line" d=" M 531.5000000000001,533 A 88,88 0 0 0 594.4962827348553,506.4448399915744"/><text x="753.5" y="445" text-anchor="start" style="font-color:black;font-weight:normal" transform="rotate(427.1428571428571,531.5,445)">13%&#160;&#160;&#160;Homo sapiens</text></svg>